<?xml version="1.0" encoding="utf-8"?>

<!-- The icon can be used freely in both personal and commercial projects with no attribution required, but always appreciated. 
You may NOT sub-license, resell, rent, redistribute or otherwise transfer the icon without express written permission from iconmonstr.com -->

<!DOCTYPE svg PUBLIC "-//W3C//DTD SVG 1.1//EN" "http://www.w3.org/Graphics/SVG/1.1/DTD/svg11.dtd">
<svg version="1.1" xmlns="http://www.w3.org/2000/svg" xmlns:xlink="http://www.w3.org/1999/xlink" x="0px" y="0px"
	 width="512px" height="512px" viewBox="0 0 512 512" enable-background="new 0 0 512 512" xml:space="preserve">
<path id="police-weapon-icon" d="M343.672,166.083c9.085-5.095,17.644-8.486,28.85-9.304c4.145-0.302,5.986,4.689,1.855,6.456
	c-8.342,3.564-14.043,7.084-18.65,13.451C351.489,173.614,347.503,170.17,343.672,166.083z M65.22,124.548
	c-3.065-1.642-6.287,0.288-6.287,3.51v13.104h39.43L65.22,124.548z M50,185.316c10.91,2.576,15.892,11.511,16.922,19.931h106.074
	v-54.635H50V185.316z M331.143,279.524c-2.124,21.205-23.917,38.369-58.052,33.102c-56.833-8.771-36.757-71.129-84.786-71.129
	v-93.206H320.51c7.963,23.941,37.191,48.123,63.043,50.995C353.981,215.602,334.536,245.651,331.143,279.524z M226.963,179.727
	h61.124c3.244,0,5.876-2.63,5.876-5.876c0-3.244-2.632-5.875-5.876-5.875h-61.124V179.727z M226.963,201.813h61.124
	c3.244,0,5.876-2.631,5.876-5.875c0-3.246-2.632-5.876-5.876-5.876h-61.124V201.813z M288.087,223.888
	c3.244,0,5.876-2.63,5.876-5.876c0-3.244-2.632-5.876-5.876-5.876h-61.124v11.752H288.087z M289.491,246.626
	c-54.269-8.384-57.198,47.647-8.891,52.445C324.609,303.442,327.134,252.442,289.491,246.626z M439.83,388.049
	c-13.4,0-37.884,0-51.027,0c-15.033,0-20.875-7.389-20.875-21.905c0-12.183,0-48.192,0-48.192
	c-0.321-16.739-8.579-30.651-21.926-36.186c2.439-30.125,20.296-56.759,47.008-70.518c0.917,11.058,5.192,25.886,19.76,42.275
	c31.949,35.944,48.634,82.802,49.224,112.877C462.226,378.236,456.839,388.049,439.83,388.049z M394.332,267.269
	c0-6.705-5.437-12.144-12.144-12.144c-6.706,0-12.144,5.439-12.144,12.144c0,6.708,5.438,12.144,12.144,12.144
	C388.896,279.412,394.332,273.977,394.332,267.269z M288.119,256.853c2.674,13.848-8.833,22.389-10.68,26.62
	c-0.979,2.244,0.744,4.544,3.213,4.347c8.008-0.645,17.429-10.525,23.015-20.323C301.546,262.533,296.559,258.215,288.119,256.853z"
	/>
</svg>
