<?xml version="1.0" encoding="utf-8"?>

<!-- License Agreement at http://iconmonstr.com/license/ -->

<!DOCTYPE svg PUBLIC "-//W3C//DTD SVG 1.1//EN" "http://www.w3.org/Graphics/SVG/1.1/DTD/svg11.dtd">
<svg version="1.1" xmlns="http://www.w3.org/2000/svg" xmlns:xlink="http://www.w3.org/1999/xlink" x="0px" y="0px"
	 width="512px" height="512px" viewBox="0 0 512 512" enable-background="new 0 0 512 512" xml:space="preserve">
<path id="pen-9-icon" d="M131.801,401.345l-22.812,41.941c0,0-28.309,7.295-46.045,18.713l-4.422-4.422l21.234-21.232
	c1.863-1.865,4.279-3.047,6.894-3.369c1.446-0.182,2.846-0.816,3.958-1.934c2.662-2.664,2.664-6.984-0.001-9.65
	c-2.665-2.662-6.985-2.662-9.651,0c-1.113,1.113-1.753,2.514-1.933,3.957c-0.32,2.609-1.507,5.035-3.367,6.896l-21.231,21.232
	L50,449.054c11.544-17.926,18.712-46.045,18.712-46.045l41.943-22.81L131.801,401.345z M456.637,87.204
	c7.606-8.967,7.062-22.272-1.254-30.587c-8.315-8.315-21.62-8.861-30.587-1.252c0,0-210.323,162.634-244.383,196.696
	c-23.749,23.748-28.788,45.882-59.914,108.615l30.824,30.824c58.788-29.16,83.381-34.699,108.615-59.914
	C293.951,297.607,456.637,87.204,456.637,87.204z"/>
</svg>
